#!OML:ASF E:\Steps\Project 1\Capture day 1\Session 2\Subject.ASF
:FULLY-SPECIFIED
:DEGREES
94
root 9.09166 16.3324 9.39935 -153.22 -3.26575 -179.389
lowerback -29.8722 -1.87537 -5.42166
upperback -2.90389 -1.62798 0.0136169
thorax 12.5479 -1.41213 2.247
lowerneck 1.70518 -4.21074 -0.949091
upperneck -11.0318 -5.80379 4.0868
head -3.72866 -3.20372 1.74159
rclavicle -1.03865e-014 7.95139e-016
rhumerus -33.6549 -19.4551 -80.0973
rradius 26.9038
rwrist 0.870696
rhand -7.46016 -51.999
rfingers 7.12502
rthumb 18.4282 -81.1461
lclavicle -1.03865e-014 7.95139e-016
lhumerus -27.9594 10.4213 80.4928
lradius 14.7168
lwrist -13.4563
lhand -21.2183 -11.865
lfingers 7.12502
lthumb 5.16361 18.0521
rfemur -26.0873 9.78535 17.01
rtibia 9.49529
rfoot -19.4044 -7.74373
rtoes -40.2906
lfemur -25.0153 -9.34972 -17.5477
ltibia 8.02894
lfoot -8.40542 3.7946
ltoes -42.2204
95
root 9.0917 16.3336 9.39914 -153.248 -3.29136 -179.421
lowerback -29.8416 -1.89081 -5.44224
upperback -2.88788 -1.63702 0.00342971
thorax 12.5533 -1.41564 2.24462
lowerneck 2.34532 -4.8462 -0.502632
upperneck -11.5041 -6.56541 5.08109
head -3.98129 -3.66466 2.06435
rclavicle -8.89561e-015 -2.14687e-014
rhumerus -33.632 -19.4044 -80.1452
rradius 26.9077
rwrist 0.807383
rhand -7.59338 -52.0164
rfingers 7.12502
rthumb 18.3001 -81.1756
lclavicle -8.89561e-015 -2.14687e-014
lhumerus -27.9715 10.7901 80.3149
lradius 14.6755
lwrist -13.8056
lhand -21.1177 -11.5538
lfingers 7.12502
lthumb 5.26071 18.3609
rfemur -26.0712 9.85453 16.9641
rtibia 9.55486
rfoot -19.5062 -7.81708
rtoes -40.2221
lfemur -24.9771 -9.37054 -17.586
ltibia 7.97981
lfoot -8.33475 3.799
ltoes -42.6686
96
root 9.09117 16.333 9.39902 -153.235 -3.27695 -179.445
lowerback -29.8774 -1.88632 -5.46738
upperback -2.86262 -1.61586 -0.0046685
thorax 12.596 -1.40707 2.2564
lowerneck 2.01822 -4.74352 -0.645763
upperneck -10.8789 -6.42912 4.84401
head -3.70276 -3.55452 1.96637
rclavicle 2.6339e-015 -2.78299e-014
rhumerus -33.5731 -19.3744 -80.1771
rradius 26.8958
rwrist 0.846475
rhand -7.70351 -51.9111
rfingers 7.12502
rthumb 18.1941 -81.0802
lclavicle 2.6339e-015 -2.78299e-014
lhumerus -27.9354 11.0436 80.1991
lradius 14.5915
lwrist -14.0905
lhand -21.0906 -11.7507
lfingers 7.12502
lthumb 5.28683 18.1633
rfemur -26.061 9.78459 16.943
rtibia 9.50429
rfoot -19.4914 -7.76309
rtoes -40.2898
lfemur -24.9695 -9.39294 -17.6191
ltibia 7.90772
lfoot -8.28892 3.85733
ltoes -42.6306
97
root 9.091 16.3329 9.39961 -153.214 -3.27775 -179.454
lowerback -29.9559 -1.89279 -5.50618
upperback -2.81688 -1.60217 0.0159177
thorax 12.6828 -1.40313 2.3023
lowerneck 2.18936 -4.81465 -0.546367
upperneck -11.3193 -6.53336 4.91314
head -3.88982 -3.63103 2.00041
rclavicle -4.96962e-015 7.95139e-016
rhumerus -33.4573 -19.4046 -80.1828
rradius 26.81
rwrist 0.781696
rhand -8.14328 -51.5254
rfingers 7.12502
rthumb 17.771 -80.7334
lclavicle -4.96962e-015 7.95139e-016
lhumerus -27.8572 10.8923 80.3213
lradius 14.5765
lwrist -13.9581
lhand -21.2084 -11.8156
lfingers 7.12502
lthumb 5.17316 18.1013
rfemur -26.066 9.71696 16.9396
rtibia 9.44369
rfoot -19.4164 -7.7165
rtoes -40.2813
lfemur -24.999 -9.38781 -17.6255
ltibia 7.92159
lfoot -8.32304 3.82721
ltoes -42.0464
98
root 9.09073 16.3334 9.39965 -153.196 -3.31263 -179.424
lowerback -30.0014 -1.89586 -5.4821
upperback -2.80097 -1.61228 0.0422579
thorax 12.7226 -1.40717 2.31247
lowerneck 2.07224 -4.74372 -0.625144
upperneck -11.0789 -6.44116 4.78485
head -3.7861 -3.5659 1.95367
rclavicle 8.49804e-015 -3.57812e-014
rhumerus -33.4175 -19.6716 -80.0588
rradius 26.7948
rwrist 1.39083
rhand -7.5145 -52.3251
rfingers 7.12502
rthumb 18.3759 -81.4772
lclavicle 8.49804e-015 -3.57812e-014
lhumerus -27.883 10.6922 80.4561
lradius 14.6782
lwrist -13.7093
lhand -21.2703 -11.6495
lfingers 7.12502
lthumb 5.11333 18.2688
rfemur -26.0794 9.66855 16.9902
rtibia 9.42496
rfoot -19.4329 -7.59465
rtoes -40.0287
lfemur -25.0258 -9.43531 -17.5563
ltibia 7.97436
lfoot -8.41645 3.80011
ltoes -41.4693
99
root 9.09091 16.3326 9.3972 -153.179 -3.32541 -179.37
lowerback -30.0381 -1.86515 -5.41645
upperback -2.80576 -1.59509 0.0528737
thorax 12.7316 -1.39706 2.29409
lowerneck 2.22499 -4.83348 -0.534513
upperneck -11.4089 -6.56599 4.85102
head -3.93007 -3.64755 1.98387
rclavicle -5.91384e-015 1.59028e-015
rhumerus -33.4606 -19.7843 -80.0184
rradius 26.7236
rwrist 1.26948
rhand -7.88629 -51.5429
rfingers 7.12502
rthumb 18.0182 -80.7282
lclavicle -5.91384e-015 1.59028e-015
lhumerus -27.9383 10.6342 80.4995
lradius 14.7753
lwrist -13.6026
lhand -21.1942 -11.5288
lfingers 7.12502
lthumb 5.18686 18.3877
rfemur -26.0738 9.61197 17.0769
rtibia 9.40656
rfoot -19.4172 -7.49396
rtoes -39.8655
lfemur -25.0158 -9.45637 -17.4798
ltibia 7.94766
lfoot -8.39942 3.85066
ltoes -41.4304
100
root 9.09163 16.3318 9.39486 -153.15 -3.30278 -179.35
lowerback -30.1296 -1.84962 -5.41124
upperback -2.77435 -1.56834 0.0537621
thorax 12.8055 -1.38576 2.29977
lowerneck 2.04381 -4.77315 -0.586062
upperneck -11.1265 -6.48705 4.73521
head -3.79882 -3.58997 1.93263
rclavicle 3.47873e-016 0
rhumerus -33.4625 -19.7721 -80.0327
rradius 26.8316
rwrist 1.38062
rhand -7.3647 -52.1815
rfingers 7.12502
rthumb 18.52 -81.3199
lclavicle 3.47873e-016 0
lhumerus -27.9207 10.5018 80.5425
lradius 14.8812
lwrist -13.5335
lhand -20.9447 -11.5848
lfingers 7.12502
lthumb 5.42772 18.3257
rfemur -26.0968 9.56666 17.1125
rtibia 9.41209
rfoot -19.3783 -7.51649
rtoes -39.9435
lfemur -25.026 -9.40969 -17.4674
ltibia 7.91703
lfoot -8.33066 3.85266
ltoes -41.5763
101
root 9.09231 16.3318 9.39564 -153.127 -3.27075 -179.373
lowerback -30.179 -1.85602 -5.44699
upperback -2.74993 -1.55756 0.0402154
thorax 12.8539 -1.38303 2.30703
lowerneck 2.21269 -4.81777 -0.517898
upperneck -11.3552 -6.54476 4.79797
head -3.91143 -3.63268 1.95987
rclavicle 8.64713e-015 9.54166e-015
rhumerus -33.4255 -19.7864 -80.0703
rradius 26.8611
rwrist 1.47827
rhand -7.09792 -52.4973
rfingers 7.12502
rthumb 18.7766 -81.6111
lclavicle 8.64713e-015 9.54166e-015
lhumerus -27.8702 10.5148 80.5151
lradius 14.8717
lwrist -13.6814
lhand -20.7373 -11.7664
lfingers 7.12502
lthumb 5.62798 18.1389
rfemur -26.1287 9.58463 17.0672
rtibia 9.39395
rfoot -19.3715 -7.49695
rtoes -39.9792
lfemur -25.0597 -9.37876 -17.4993
ltibia 7.92117
lfoot -8.32482 3.8393
ltoes -41.9512
102
root 9.09246 16.332 9.39697 -153.135 -3.26682 -179.4
lowerback -30.1741 -1.85308 -5.46058
upperback -2.73759 -1.54465 0.0235083
thorax 12.8643 -1.37704 2.30148
lowerneck 2.17775 -4.73839 -0.594743
upperneck -11.2319 -6.44355 4.67647
head -3.86522 -3.56763 1.92279
rclavicle -8.15017e-015 -2.94201e-014
rhumerus -33.4204 -19.7266 -80.1417
rradius 26.9178
rwrist 1.29299
rhand -7.24588 -52.0367
rfingers 7.12502
rthumb 18.6343 -81.1641
lclavicle -8.15017e-015 -2.94201e-014
lhumerus -27.818 10.7409 80.4578
lradius 14.7638
lwrist -13.9441
lhand -20.7119 -11.7793
lfingers 7.12502
lthumb 5.65249 18.1253
rfemur -26.1096 9.65407 17.0175
rtibia 9.35277
rfoot -19.3512 -7.54531
rtoes -40.1998
lfemur -25.0502 -9.42174 -17.5241
ltibia 7.90386
lfoot -8.32982 3.91946
ltoes -42.5042
103
root 9.09262 16.333 9.39701 -153.151 -3.28056 -179.43
lowerback -30.1542 -1.8503 -5.47985
upperback -2.72991 -1.53079 0.00320649
thorax 12.8627 -1.37059 2.29595
lowerneck 2.26533 -4.86253 -0.518254
upperneck -11.4109 -6.60394 4.82008
head -3.93899 -3.66473 1.97376
rclavicle 4.27387e-015 2.06736e-014
rhumerus -33.445 -19.6476 -80.1871
rradius 26.9937
rwrist 1.25881
rhand -6.71366 -52.5176
rfingers 7.12502
rthumb 19.1462 -81.5952
lclavicle 4.27387e-015 2.06736e-014
lhumerus -27.8254 10.6069 80.5277
lradius 14.8005
lwrist -13.7802
lhand -20.8018 -11.7297
lfingers 7.12502
lthumb 5.56567 18.1773
rfemur -26.0836 9.61554 17.0046
rtibia 9.36671
rfoot -19.3585 -7.58091
rtoes -40.4496
lfemur -25.0232 -9.46359 -17.5591
ltibia 7.89785
lfoot -8.32113 3.97701
ltoes -42.8728
104
root 9.09324 16.3333 9.39728 -153.121 -3.2555 -179.453
lowerback -30.1876 -1.84911 -5.52285
upperback -2.72268 -1.51242 -0.00225478
thorax 12.8842 -1.36512 2.31929
lowerneck 2.08069 -4.85886 -0.533914
upperneck -11.2231 -6.60454 4.73389
head -3.83841 -3.65394 1.93243
rclavicle 5.01931e-015 1.35174e-014
rhumerus -33.3628 -19.6691 -80.211
rradius 26.8778
rwrist 1.14332
rhand -6.2097 -53.336
rfingers 7.12502
rthumb 19.6308 -82.3649
lclavicle 5.01931e-015 1.35174e-014
lhumerus -27.8313 10.3273 80.6521
lradius 14.8631
lwrist -13.5033
lhand -20.8669 -11.7409
lfingers 7.12502
lthumb 5.50283 18.1676
rfemur -26.1274 9.63378 16.9624
rtibia 9.3966
rfoot -19.3816 -7.58386
rtoes -40.4243
lfemur -25.0585 -9.44141 -17.5931
ltibia 7.9269
lfoot -8.30444 3.95978
ltoes -42.7954
105
root 9.09391 16.333 9.39934 -153.105 -3.23174 -179.442
lowerback -30.2303 -1.85323 -5.54479
upperback -2.69978 -1.50739 0.0208315
thorax 12.9298 -1.36455 2.35674
lowerneck 2.36563 -5.04244 -0.343666
upperneck -11.755 -6.84102 5.02006
head -4.07374 -3.81512 2.03759
rclavicle -1.26228e-014 -2.3059e-014
rhumerus -33.2067 -19.8948 -80.123
rradius 26.7084
rwrist 1.52326
rhand -6.17997 -53.4234
rfingers 7.12502
rthumb 19.6593 -82.4494
lclavicle -1.26228e-014 -2.3059e-014
lhumerus -27.7817 10.3776 80.6812
lradius 14.8183
lwrist -13.5513
lhand -20.7832 -11.9301
lfingers 7.12502
lthumb 5.58371 17.9763
rfemur -26.1812 9.71381 16.9436
rtibia 9.43792
rfoot -19.4054 -7.62646
rtoes -40.4371
lfemur -25.0818 -9.40518 -17.5853
ltibia 7.93159
lfoot -8.28666 3.91751
ltoes -42.5857
106
root 9.09469 16.3336 9.39987 -153.177 -3.27069 -179.415
lowerback -30.092 -1.85539 -5.5193
upperback -2.73621 -1.53007 0.0333369
thorax 12.8298 -1.37125 2.35194
lowerneck 2.39313 -5.14789 -0.240777
upperneck -11.8129 -6.97267 5.13833
head -4.09538 -3.8941 2.06794
rclavicle -1.1778e-014 -2.38542e-015
rhumerus -33.2312 -19.907 -80.1204
rradius 26.6802
rwrist 1.56925
rhand -6.43758 -53.0946
rfingers 7.12502
rthumb 19.4117 -82.1457
lclavicle -1.1778e-014 -2.38542e-015
lhumerus -27.8977 10.2209 80.7463
lradius 14.8781
lwrist -13.32
lhand -21.0539 -11.8733
lfingers 7.12502
lthumb 5.32235 18.0398
rfemur -26.0983 9.72604 17.0047
rtibia 9.43951
rfoot -19.4669 -7.67295
rtoes -40.6966
lfemur -24.9979 -9.36388 -17.5704
ltibia 7.88535
lfoot -8.24774 3.86392
ltoes -42.8928
107
root 9.09547 16.3341 9.39792 -153.216 -3.29529 -179.419
lowerback -29.9484 -1.84329 -5.51308
upperback -2.81049 -1.53302 0.015438
thorax 12.6814 -1.37112 2.33246
lowerneck 2.4267 -5.17023 -0.221865
upperneck -11.7368 -6.99572 5.12959
head -4.07495 -3.90189 2.06071
rclavicle 6.16232e-015 -1.51076e-014
rhumerus -33.42 -19.9085 -80.1102
rradius 26.7683
rwrist 1.5505
rhand -6.53786 -53.012
rfingers 7.12502
rthumb 19.3152 -82.0728
lclavicle 6.16232e-015 -1.51076e-014
lhumerus -28.0742 9.81728 80.8914
lradius 15.034
lwrist -12.813
lhand -21.3023 -11.3263
lfingers 7.12502
lthumb 5.08244 18.5928
rfemur -26.0005 9.73247 17.0226
rtibia 9.35958
rfoot -19.4417 -7.71484
rtoes -40.9227
lfemur -24.932 -9.31148 -17.6065
ltibia 7.82129
lfoot -8.17957 3.87549
ltoes -43.5957
108
root 9.09659 16.3341 9.39801 -153.178 -3.25662 -179.439
lowerback -29.9862 -1.83417 -5.55849
upperback -2.8159 -1.50626 0.00795423
thorax 12.6896 -1.36253 2.35794
lowerneck 2.45896 -5.19475 -0.216287
upperneck -11.7728 -7.02879 5.12853
head -4.09339 -3.91953 2.06357
rclavicle -1.18774e-014 -1.35174e-014
rhumerus -33.4875 -19.9411 -80.1172
rradius 26.8809
rwrist 1.49974
rhand -6.56761 -52.8613
rfingers 7.12502
rthumb 19.2866 -81.925
lclavicle -1.18774e-014 -1.35174e-014
lhumerus -28.0539 9.75995 80.9574
lradius 15.0512
lwrist -12.6927
lhand -21.2328 -10.8639
lfingers 7.12502
lthumb 5.1496 19.0535
rfemur -26.0416 9.76607 16.9751
rtibia 9.34576
rfoot -19.3983 -7.70233
rtoes -40.7684
lfemur -24.9591 -9.31972 -17.6221
ltibia 7.79985
lfoot -8.19426 3.90034
ltoes -43.3017
